<?xml version="1.0" encoding="UTF-8"?>
<svg width="403px" height="472px" viewBox="0 0 403 472" version="1.1" xmlns="http://www.w3.org/2000/svg" xmlns:xlink="http://www.w3.org/1999/xlink">
    <!-- Generator: Sketch 43.1 (39012) - http://www.bohemiancoding.com/sketch -->
    <title>Group</title>
    <desc>Created with Sketch.</desc>
    <defs>
        <path d="M289.422535,403 L353.002852,403 C380.614388,403 403,380.615515 403,353.002852 L403,49.9971476 C403,22.385612 380.615515,0 353.002852,0 L49.9971476,0 C22.385612,0 0,22.3844855 0,49.9971476 L0,353.002852 C0,380.614388 22.3844855,403 49.9971476,403 L111.577465,403 L200.5,472 L289.422535,403 Z" id="path-1"></path>
    </defs>
    <g id="Page-1" stroke="none" stroke-width="1" fill="none" fill-rule="evenodd">
        <g id="Group">
            <g id="Combined-Shape">
                <use fill="#9043C9" fill-rule="evenodd" xlink:href="#path-1"></use>
                <path stroke="#000000" stroke-width="20" d="M200.5,459.342559 L117.7079,395.099509 L115.002195,393 L111.577465,393 L49.9971476,393 C27.9077569,393 10,375.091964 10,353.002852 L10,49.9971476 C10,27.9077569 27.9080356,10 49.9971476,10 L353.002852,10 C375.092243,10 393,27.9080356 393,49.9971476 L393,353.002852 C393,375.092243 375.091964,393 353.002852,393 L289.422535,393 L285.997805,393 L283.2921,395.099509 L200.5,459.342559 Z"></path>
            </g>
            <g id="harbor" transform="translate(47.000000, 112.000000)" fill-rule="nonzero" fill="#FFFFFF">
                <path d="M63.9671732,31.9321444 C69.9426277,25.9541444 79.6652749,25.9541444 85.6420844,31.9321444 C102.18366,48.4807667 129.099628,48.4807667 145.641203,31.9321444 C148.536115,29.036 152.384931,27.4411889 156.478998,27.4411889 C160.573065,27.4411889 164.421881,29.0366778 167.316792,31.9321444 C183.858368,48.4807667 210.774335,48.4807667 227.315911,31.9321444 C230.210823,29.036 234.059639,27.4411889 238.153706,27.4411889 C242.247773,27.4411889 246.096589,29.0366778 248.9915,31.9321444 C257.004842,39.9489 267.659037,44.3639444 278.990721,44.3639444 C290.32376,44.3639444 300.977277,39.9489 308.990619,31.9321444 C314.282487,26.6380222 314.28181,18.0553222 308.989942,12.7618778 C303.698074,7.46775556 295.119028,7.46775556 289.827838,12.7618778 C286.933604,15.6580222 283.084788,17.2528333 278.990721,17.2528333 C274.896654,17.2528333 271.047838,15.6573444 268.153604,12.7625556 C260.140939,4.7458 249.486067,0.330755556 238.154383,0.330077778 C238.153028,0.330077778 238.154383,0.330077778 238.153706,0.330077778 C226.822022,0.330077778 216.167149,4.7458 208.153807,12.7618778 C202.178353,18.7405556 192.453673,18.7392 186.479574,12.7625556 C178.466909,4.7458 167.812037,0.330755556 156.480353,0.330077778 C156.478998,0.330077778 156.480353,0.330077778 156.479675,0.330077778 C145.147991,0.330077778 134.493119,4.7458 126.479777,12.7618778 C120.504323,18.7405556 110.779643,18.7398778 104.805543,12.7618778 C88.26329,-3.78742222 61.3473225,-3.78742222 44.8057468,12.7618778 C38.8302922,18.7398778 29.1069675,18.7398778 23.130158,12.7618778 C17.83829,7.46775556 9.25924459,7.46775556 3.96805411,12.7618778 C-1.32313636,18.056 -1.32313636,26.6387 3.9687316,31.9321444 C20.5089524,48.4807667 47.4242424,48.4807667 63.9671732,31.9321444 Z" id="Shape"></path>
                <path d="M63.9685281,101.065478 C69.9439827,95.0874778 79.6666299,95.0874778 85.6434394,101.065478 C102.185015,117.6141 129.100983,117.6141 145.642558,101.065478 C148.53747,98.1693333 152.386286,96.5745222 156.480353,96.5745222 C160.57442,96.5745222 164.423236,98.1700111 167.318147,101.065478 C183.859723,117.6141 210.77569,117.6141 227.317266,101.065478 C230.212177,98.1693333 234.060994,96.5745222 238.155061,96.5745222 C242.249128,96.5745222 246.097944,98.1700111 248.992855,101.065478 C257.006197,109.082233 267.660392,113.497278 278.992076,113.497278 C290.325115,113.497278 300.978632,109.082233 308.991974,101.065478 C314.283842,95.7713556 314.283165,87.1886556 308.991297,81.8952111 C303.698074,76.6010889 295.119028,76.6010889 289.827838,81.8952111 C286.933604,84.7913556 283.084788,86.3861667 278.990721,86.3861667 C274.896654,86.3861667 271.047838,84.7906778 268.153604,81.8958889 C260.140939,73.8791333 249.486067,69.4640889 238.154383,69.4634111 C238.153028,69.4634111 238.154383,69.4634111 238.153706,69.4634111 C226.822022,69.4634111 216.167149,73.8791333 208.153807,81.8952111 C202.178353,87.8738889 192.453673,87.8725333 186.479574,81.8958889 C178.466909,73.8791333 167.812037,69.4640889 156.480353,69.4634111 C156.478998,69.4634111 156.480353,69.4634111 156.479675,69.4634111 C145.147991,69.4634111 134.493119,73.8791333 126.479777,81.8952111 C120.504323,87.8738889 110.779643,87.8732111 104.805543,81.8952111 C88.26329,65.3459111 61.3473225,65.3459111 44.8057468,81.8952111 C38.8302922,87.8732111 29.1069675,87.8732111 23.130158,81.8952111 C17.83829,76.6010889 9.25924459,76.6010889 3.96805411,81.8952111 C-1.32313636,87.1893333 -1.32313636,95.7720333 3.9687316,101.065478 C20.5103074,117.6141 47.4255974,117.6141 63.9685281,101.065478 Z" id="Shape"></path>
                <path d="M289.827838,151.028544 C286.933604,153.924689 283.084788,155.5195 278.990721,155.5195 C274.896654,155.5195 271.047838,153.924011 268.153604,151.029222 C260.140939,143.012467 249.486067,138.597422 238.154383,138.596744 C238.153028,138.596744 238.154383,138.596744 238.153706,138.596744 C226.822022,138.596744 216.167149,143.012467 208.153807,151.028544 C202.178353,157.007222 192.453673,157.005867 186.479574,151.029222 C178.466909,143.012467 167.812037,138.597422 156.480353,138.596744 C156.478998,138.596744 156.480353,138.596744 156.479675,138.596744 C145.147991,138.596744 134.493119,143.012467 126.479777,151.028544 C120.504323,157.006544 110.779643,157.007222 104.805543,151.028544 C88.26329,134.479244 61.3473225,134.479244 44.8057468,151.028544 C38.8302922,157.006544 29.1069675,157.006544 23.130158,151.028544 C17.83829,145.734422 9.25924459,145.734422 3.96805411,151.028544 C-1.32313636,156.322667 -1.32313636,164.905367 3.9687316,170.198811 C20.5103074,186.747433 47.4255974,186.747433 63.9685281,170.198811 C69.9439827,164.220811 79.6666299,164.220811 85.6434394,170.198811 C102.185015,186.747433 129.100983,186.747433 145.642558,170.198811 C148.53747,167.302667 152.386286,165.707856 156.480353,165.707856 C160.57442,165.707856 164.423236,167.303344 167.318147,170.198811 C183.859723,186.747433 210.77569,186.747433 227.317266,170.198811 C230.212177,167.302667 234.060994,165.707856 238.155061,165.707856 C242.249128,165.707856 246.097944,167.303344 248.992855,170.198811 C257.006197,178.215567 267.660392,182.630611 278.992076,182.630611 C290.325115,182.630611 300.978632,178.215567 308.991974,170.198811 C314.283842,164.904689 314.283165,156.321989 308.991297,151.028544 C303.698074,145.734422 295.119028,145.734422 289.827838,151.028544 Z" id="Shape"></path>
            </g>
        </g>
    </g>
</svg>