<?xml version="1.0" standalone="no"?>
<!DOCTYPE svg PUBLIC "-//W3C//DTD SVG 20010904//EN"
 "http://www.w3.org/TR/2001/REC-SVG-20010904/DTD/svg10.dtd">
<svg version="1.0" xmlns="http://www.w3.org/2000/svg"
 width="600.000000pt" height="600.000000pt" viewBox="0 0 600.000000 600.000000"
 preserveAspectRatio="xMidYMid meet">

<g transform="translate(0.000000,600.000000) scale(0.100000,-0.100000)"
fill="#000000" stroke="none">
<path d="M2245 5852 c-115 -54 -149 -189 -71 -289 l36 -46 0 -1989 0 -1988
-995 -2 -995 -3 127 -145 c148 -169 484 -508 628 -631 426 -365 778 -570 1085
-630 84 -17 419 -17 570 0 912 99 2012 571 3064 1315 l128 91 -1691 3 -1691 2
0 1991 0 1990 32 40 c27 33 33 50 36 104 4 52 0 70 -19 104 -47 85 -159 123
-244 83z"/>
<path d="M2607 5497 c358 -1830 371 -2832 48 -3506 -31 -63 -54 -115 -53 -116
6 -5 2808 -17 2808 -13 0 13 -170 379 -254 546 -531 1060 -1241 1977 -2216
2862 -122 111 -320 283 -336 293 -8 5 -7 -15 3 -66z"/>
<path d="M2036 4208 c-26 -122 -101 -346 -163 -487 -95 -220 -224 -431 -385
-633 -124 -156 -436 -461 -693 -677 -389 -327 -477 -403 -555 -478 l-75 -72
948 -1 947 0 0 1215 c0 668 -1 1215 -3 1215 -2 0 -11 -37 -21 -82z"/>
</g>
</svg>
