<?xml version="1.0" encoding="UTF-8"?>
<svg width="403px" height="472px" viewBox="0 0 403 472" version="1.1" xmlns="http://www.w3.org/2000/svg" xmlns:xlink="http://www.w3.org/1999/xlink">
    <!-- Generator: Sketch 43.1 (39012) - http://www.bohemiancoding.com/sketch -->
    <title>Group</title>
    <desc>Created with Sketch.</desc>
    <defs>
        <path d="M289.422535,403 L353.002852,403 C380.614388,403 403,380.615515 403,353.002852 L403,49.9971476 C403,22.385612 380.615515,0 353.002852,0 L49.9971476,0 C22.385612,0 0,22.3844855 0,49.9971476 L0,353.002852 C0,380.614388 22.3844855,403 49.9971476,403 L111.577465,403 L200.5,472 L289.422535,403 Z" id="path-1"></path>
    </defs>
    <g id="Page-1" stroke="none" stroke-width="1" fill="none" fill-rule="evenodd">
        <g id="Group">
            <g id="Combined-Shape">
                <use fill="#EA9B1C" fill-rule="evenodd" xlink:href="#path-1"></use>
                <path stroke="#000000" stroke-width="20" d="M200.5,459.342559 L117.7079,395.099509 L115.002195,393 L111.577465,393 L49.9971476,393 C27.9077569,393 10,375.091964 10,353.002852 L10,49.9971476 C10,27.9077569 27.9080356,10 49.9971476,10 L353.002852,10 C375.092243,10 393,27.9080356 393,49.9971476 L393,353.002852 C393,375.092243 375.091964,393 353.002852,393 L289.422535,393 L285.997805,393 L283.2921,395.099509 L200.5,459.342559 Z"></path>
            </g>
            <g id="ferry" transform="translate(80.000000, 60.000000)" fill-rule="nonzero" fill="#FFFFFF">
                <path d="M214.01269,258.533333 C208.911541,258.533333 204.761421,254.391876 204.761421,249.3 L186.258883,249.3 C186.258883,254.391876 182.108764,258.533333 177.007614,258.533333 C171.906464,258.533333 167.756345,254.391876 167.756345,249.3 L149.253807,249.3 C149.253807,254.391876 145.103688,258.533333 140.002538,258.533333 C134.901388,258.533333 130.751269,254.391876 130.751269,249.3 L112.248731,249.3 C112.248731,254.391876 108.098612,258.533333 102.997462,258.533333 C97.8963122,258.533333 93.7461929,254.391876 93.7461929,249.3 L75.2436548,249.3 C75.2436548,254.391876 71.0935355,258.533333 65.9923858,258.533333 C60.891236,258.533333 56.7411168,254.391876 56.7411168,249.3 L38.2385787,249.3 C38.2385787,254.391876 34.0884594,258.533333 28.9873096,258.533333 C23.8861599,258.533333 19.7360406,254.391876 19.7360406,249.3 L1.23350254,249.3 C1.23350254,264.574396 13.6838604,277 28.9873096,277 C36.090434,277 42.5755736,274.320487 47.4898477,269.924189 C52.4041218,274.320487 58.8892614,277 65.9923858,277 C73.0955102,277 79.5806497,274.320487 84.4949239,269.924189 C89.409198,274.320487 95.8943376,277 102.997462,277 C110.100586,277 116.585726,274.320487 121.5,269.924189 C126.414274,274.320487 132.899414,277 140.002538,277 C147.105662,277 153.590802,274.320487 158.505076,269.924189 C163.41935,274.320487 169.90449,277 177.007614,277 C184.110739,277 190.595878,274.320487 195.510152,269.924189 C200.424426,274.320487 206.909566,277 214.01269,277 C229.31614,277 241.766497,264.574396 241.766497,249.3 L223.263959,249.3 C223.263959,254.391876 219.11384,258.533333 214.01269,258.533333 Z" id="Shape"></path>
                <path d="M223.263959,108.132798 L223.263959,73.8666667 L204.761421,73.8666667 L204.761421,36.9333333 L149.253807,36.9333333 L149.253807,27.7 C149.253807,12.42622 136.803449,0 121.5,0 C106.196551,0 93.7461929,12.42622 93.7461929,27.7 L93.7461929,36.9333333 L38.2385787,36.9333333 L38.2385787,73.8666667 L19.7360406,73.8666667 L19.7360406,108.132798 L121.5,85.5622222 L223.263959,108.132798 Z M167.756345,55.4 L186.258883,55.4 L186.258883,73.8666667 L167.756345,73.8666667 L167.756345,55.4 Z M130.751269,55.4 L149.253807,55.4 L149.253807,73.8666667 L130.751269,73.8666667 L130.751269,55.4 Z M75.2436548,73.8666667 L56.7411168,73.8666667 L56.7411168,55.4 L75.2436548,55.4 L75.2436548,73.8666667 Z M112.248731,73.8666667 L93.7461929,73.8666667 L93.7461929,55.4 L112.248731,55.4 L112.248731,73.8666667 Z" id="Shape"></path>
                <path d="M31.2958096,236.988889 L112.248731,236.988889 L112.248731,106.471413 L0.193043147,131.323853 L1.31429695,139.720031 C1.70408376,142.634687 8.91020558,194.622662 31.2958096,236.988889 Z" id="Shape"></path>
                <path d="M130.751269,236.988889 L211.70419,236.988889 C234.089794,194.622662 241.295916,142.634687 241.685703,139.720031 L242.806957,131.323853 L130.751269,106.471413 L130.751269,236.988889 Z" id="Shape"></path>
            </g>
        </g>
    </g>
</svg>