<?xml version="1.0" encoding="UTF-8"?>
<svg width="403px" height="472px" viewBox="0 0 403 472" version="1.1" xmlns="http://www.w3.org/2000/svg" xmlns:xlink="http://www.w3.org/1999/xlink">
    <!-- Generator: Sketch 43.1 (39012) - http://www.bohemiancoding.com/sketch -->
    <title>Group</title>
    <desc>Created with Sketch.</desc>
    <defs>
        <path d="M289.422535,403 L353.002852,403 C380.614388,403 403,380.615515 403,353.002852 L403,49.9971476 C403,22.385612 380.615515,0 353.002852,0 L49.9971476,0 C22.385612,0 0,22.3844855 0,49.9971476 L0,353.002852 C0,380.614388 22.3844855,403 49.9971476,403 L111.577465,403 L200.5,472 L289.422535,403 Z" id="path-1"></path>
    </defs>
    <g id="Page-1" stroke="none" stroke-width="1" fill="none" fill-rule="evenodd">
        <g id="Group">
            <g id="Combined-Shape">
                <use fill="#EBC02C" fill-rule="evenodd" xlink:href="#path-1"></use>
                <path stroke="#000000" stroke-width="20" d="M200.5,459.342559 L117.7079,395.099509 L115.002195,393 L111.577465,393 L49.9971476,393 C27.9077569,393 10,375.091964 10,353.002852 L10,49.9971476 C10,27.9077569 27.9080356,10 49.9971476,10 L353.002852,10 C375.092243,10 393,27.9080356 393,49.9971476 L393,353.002852 C393,375.092243 375.091964,393 353.002852,393 L289.422535,393 L285.997805,393 L283.2921,395.099509 L200.5,459.342559 Z"></path>
            </g>
            <g id="lighthouse" transform="translate(127.000000, 65.000000)" fill-rule="nonzero" fill="#FFFFFF">
                <path d="M27.4058178,179.093125 L38.0179206,93.2801737 L105.51465,93.2801737 L109.739182,127.43995 L27.4058178,179.093125 Z M135.948528,262.530798 L126.379626,262.530798 C126.380584,262.476946 126.38729,262.424055 126.38729,262.370202 C126.38729,261.882645 126.339393,261.405666 126.24743,260.945997 L114.304743,164.368321 L22.5480841,221.933728 C22.3948131,222.029893 22.2338785,222.102017 22.0767757,222.184719 L17.2171262,261.482598 C17.1740187,261.833601 17.1653972,262.183642 17.1740187,262.53176 L7.58308411,262.53176 C3.61432243,262.53176 0.398504673,265.760023 0.398504673,269.744144 C0.398504673,273.728266 3.61432243,276.956529 7.58308411,276.956529 L135.94757,276.956529 C139.916332,276.956529 143.13215,273.728266 143.13215,269.744144 C143.13215,265.760023 139.916332,262.530798 135.948528,262.530798 Z M107.21021,66.353938 L102.185794,66.353938 L100.691402,54.8141227 L76.875,54.8141227 C76.1699533,54.8141227 75.4974766,54.4304238 74.8863084,54.170778 C74.2751402,53.9111321 73.7243224,53.4158817 73.2625935,52.9514042 C72.5690421,52.2551686 71.9147664,51.3002489 71.7107243,50.2982083 C71.6427103,49.9645153 71.4472897,49.5885097 71.4472897,49.234622 L71.4472897,49.2048108 L71.4472897,43.5954989 L71.4472897,43.5954989 C71.4472897,43.2416112 71.6427103,42.8954168 71.7107243,42.5617238 C72.0507944,40.8922972 73.2788785,39.5180975 74.8067991,38.8699445 C75.4179673,38.6102987 76.1699533,38.4670127 76.875,38.4670127 L98.7180374,38.4670127 L97.5704206,29.2370837 C100.139626,28.1379163 101.940561,25.5808856 101.940561,22.5997666 C101.940561,18.8098989 99.0274533,15.7095352 95.3278738,15.4162316 C92.1628271,6.28823769 83.486729,0 73.4790888,0 L70.0534813,0 C60.0554206,0 51.3879439,6.27573622 48.2152336,15.3864204 L47.8176869,15.3864204 C43.8489252,15.3864204 40.6331075,18.6146837 40.6331075,22.598805 C40.6331075,25.9232334 42.8756542,28.7139454 45.9228738,29.5496204 L41.3477336,66.353938 L35.3644159,66.353938 C31.3956542,66.353938 28.1798364,69.5822013 28.1798364,73.5663226 C28.1798364,75.6588757 29.0726402,77.5379423 30.4913551,78.8554046 L112.083271,78.8554046 C113.501028,77.5379423 114.39479,75.6588757 114.39479,73.5663226 C114.39479,69.5822013 111.178014,66.353938 107.21021,66.353938 Z M202.191308,25.4366379 C200.563762,24.0643615 198.492687,23.4883324 196.401495,23.8614531 L108.310888,39.5382922 C104.880491,40.1489407 102.399416,43.1415995 102.399416,46.6400868 C102.399416,50.1385742 104.910187,53.131233 108.340584,53.7418815 L196.476215,69.4187206 C196.893879,69.4927678 197.315374,69.5293105 197.732079,69.5293105 C199.406565,69.5293105 200.886589,68.9417416 202.189393,67.8435358 C203.817897,66.4731827 204.599579,64.4498685 204.599579,62.3169259 L204.599579,30.9632478 C204.600537,28.8303052 203.820771,26.8069909 202.191308,25.4366379 Z" id="Shape"></path>
            </g>
        </g>
    </g>
</svg>