<?xml version="1.0" encoding="UTF-8"?>
<svg width="403px" height="472px" viewBox="0 0 403 472" version="1.1" xmlns="http://www.w3.org/2000/svg" xmlns:xlink="http://www.w3.org/1999/xlink">
    <!-- Generator: Sketch 43.1 (39012) - http://www.bohemiancoding.com/sketch -->
    <title>Group</title>
    <desc>Created with Sketch.</desc>
    <defs>
        <path d="M289.422535,403 L353.002852,403 C380.614388,403 403,380.615515 403,353.002852 L403,49.9971476 C403,22.385612 380.615515,0 353.002852,0 L49.9971476,0 C22.385612,0 0,22.3844855 0,49.9971476 L0,353.002852 C0,380.614388 22.3844855,403 49.9971476,403 L111.577465,403 L200.5,472 L289.422535,403 Z" id="path-1"></path>
    </defs>
    <g id="Page-1" stroke="none" stroke-width="1" fill="none" fill-rule="evenodd">
        <g id="Group">
            <g id="Combined-Shape">
                <use fill="#43B5C9" fill-rule="evenodd" xlink:href="#path-1"></use>
                <path stroke="#000000" stroke-width="20" d="M200.5,459.342559 L117.7079,395.099509 L115.002195,393 L111.577465,393 L49.9971476,393 C27.9077569,393 10,375.091964 10,353.002852 L10,49.9971476 C10,27.9077569 27.9080356,10 49.9971476,10 L353.002852,10 C375.092243,10 393,27.9080356 393,49.9971476 L393,353.002852 C393,375.092243 375.091964,393 353.002852,393 L289.422535,393 L285.997805,393 L283.2921,395.099509 L200.5,459.342559 Z"></path>
            </g>
            <g id="bridge-(2)" transform="translate(57.000000, 117.000000)" fill-rule="nonzero" fill="#FFFFFF">
                <path d="M292,19.3937282 L292,0.160278746 L0,0.160278746 L0,19.3937282 L19.2527473,19.3937282 L19.2527473,45.0383275 L0,45.0383275 L0,183.839721 L42.3515516,183.839721 L42.3515516,145.522202 C42.3515516,122.804293 60.8136527,104.387624 83.5883692,104.387624 C106.363086,104.387624 124.825187,122.804293 124.825187,145.522202 L124.821978,183.839721 L167.175455,183.839721 L167.175455,145.522202 C167.175455,122.804293 185.637556,104.387624 208.412273,104.387624 C231.186989,104.387624 249.64909,122.804293 249.64909,145.522202 L249.64909,183.839721 L292,183.839721 L292,45.0383275 L272.747253,45.0383275 L272.747253,19.3937282 L292,19.3937282 Z M136.373626,45.0383275 L38.5054945,45.0383275 L38.5054945,19.3937282 L136.373626,19.3937282 L136.373626,45.0383275 Z M253.494505,45.0383275 L155.626374,45.0383275 L155.626374,19.3937282 L253.494505,19.3937282 L253.494505,45.0383275 Z" id="Shape"></path>
            </g>
        </g>
    </g>
</svg>