<?xml version="1.0" encoding="UTF-8"?>
<svg width="403px" height="472px" viewBox="0 0 403 472" version="1.1" xmlns="http://www.w3.org/2000/svg" xmlns:xlink="http://www.w3.org/1999/xlink">
    <!-- Generator: Sketch 43.1 (39012) - http://www.bohemiancoding.com/sketch -->
    <title>Group</title>
    <desc>Created with Sketch.</desc>
    <defs>
        <path d="M289.422535,403 L353.002852,403 C380.614388,403 403,380.615515 403,353.002852 L403,49.9971476 C403,22.385612 380.615515,0 353.002852,0 L49.9971476,0 C22.385612,0 0,22.3844855 0,49.9971476 L0,353.002852 C0,380.614388 22.3844855,403 49.9971476,403 L111.577465,403 L200.5,472 L289.422535,403 Z" id="path-1"></path>
    </defs>
    <g id="Page-1" stroke="none" stroke-width="1" fill="none" fill-rule="evenodd">
        <g id="Group">
            <g id="Combined-Shape">
                <use fill="#E86F34" fill-rule="evenodd" xlink:href="#path-1"></use>
                <path stroke="#000000" stroke-width="20" d="M200.5,459.342559 L117.7079,395.099509 L115.002195,393 L111.577465,393 L49.9971476,393 C27.9077569,393 10,375.091964 10,353.002852 L10,49.9971476 C10,27.9077569 27.9080356,10 49.9971476,10 L353.002852,10 C375.092243,10 393,27.9080356 393,49.9971476 L393,353.002852 C393,375.092243 375.091964,393 353.002852,393 L289.422535,393 L285.997805,393 L283.2921,395.099509 L200.5,459.342559 Z"></path>
            </g>
            <g id="landmark" transform="translate(50.000000, 75.000000)" fill-rule="nonzero" fill="#FFFFFF">
                <path d="M93.8984348,26.0242683 C94.0702609,25.0261951 94.8302609,24.2396341 95.8149565,24.0347317 C96.7996522,23.8298293 97.8107826,24.2528537 98.365913,25.0922927 L128.693217,71.6117561 L136.517913,60.4941463 L97.6521739,3.20739024 C96.3833043,1.33682927 94.2817391,0.206560976 92.0149565,0.186731707 C89.7613913,0.166902439 87.6333913,1.2575122 86.338087,3.1082439 L2.25565217,122.612634 C1.17182609,124.146098 0.768695652,126.056317 1.12556522,127.893829 C1.48904348,129.731341 2.57947826,131.350732 4.15895652,132.362024 L60.4782609,168.570268 L72.6250435,151.298976 L93.8984348,26.0242683 Z" id="Shape"></path>
                <path d="M301.477565,201.804122 L190.590261,38.2853659 C188.977739,35.9058537 186.294609,34.4847561 183.419826,34.4847561 C180.597913,34.4847561 177.961043,35.8595854 176.335304,38.1597805 L64.2121739,197.435073 C62.778087,199.477488 62.2427826,202.035463 62.7186087,204.474463 C63.1944348,206.920073 64.6483478,209.074854 66.7366957,210.416634 L146.979478,262.01239 C148.466435,262.977415 150.184696,263.473146 151.922783,263.473146 C152.887652,263.473146 153.85913,263.327732 154.810783,263.017073 L296.818435,215.67139 C299.528,214.765854 301.656,212.644122 302.574609,209.934122 C303.486609,207.210902 303.07687,204.177024 301.477565,201.804122 Z M276.32487,200.997732 C275.829217,202.445268 274.69913,203.575537 273.258435,204.077878 L161.320348,242.896976 C160.236522,243.267122 159.033739,243.03578 158.154783,242.295488 C157.275826,241.561805 156.85287,240.405098 157.05113,239.26822 L185.937739,69.2058049 C186.162435,67.8838537 187.173565,66.8395122 188.482087,66.5685122 C189.790609,66.2975122 191.132174,66.8527317 191.865739,67.9763902 L275.789565,196.70139 C276.622261,197.970463 276.813913,199.556805 276.32487,200.997732 Z" id="Shape"></path>
            </g>
        </g>
    </g>
</svg>