<?xml version="1.0" encoding="UTF-8"?>
<svg width="403px" height="472px" viewBox="0 0 403 472" version="1.1" xmlns="http://www.w3.org/2000/svg" xmlns:xlink="http://www.w3.org/1999/xlink">
    <!-- Generator: Sketch 43.1 (39012) - http://www.bohemiancoding.com/sketch -->
    <title>Group</title>
    <desc>Created with Sketch.</desc>
    <defs>
        <path d="M289.422535,403 L353.002852,403 C380.614388,403 403,380.615515 403,353.002852 L403,49.9971476 C403,22.385612 380.615515,0 353.002852,0 L49.9971476,0 C22.385612,0 0,22.3844855 0,49.9971476 L0,353.002852 C0,380.614388 22.3844855,403 49.9971476,403 L111.577465,403 L200.5,472 L289.422535,403 Z" id="path-1"></path>
    </defs>
    <g id="Page-1" stroke="none" stroke-width="1" fill="none" fill-rule="evenodd">
        <g id="Group">
            <g id="Combined-Shape">
                <use fill="#4377C9" fill-rule="evenodd" xlink:href="#path-1"></use>
                <path stroke="#000000" stroke-width="20" d="M200.5,459.342559 L117.7079,395.099509 L115.002195,393 L111.577465,393 L49.9971476,393 C27.9077569,393 10,375.091964 10,353.002852 L10,49.9971476 C10,27.9077569 27.9080356,10 49.9971476,10 L353.002852,10 C375.092243,10 393,27.9080356 393,49.9971476 L393,353.002852 C393,375.092243 375.091964,393 353.002852,393 L289.422535,393 L285.997805,393 L283.2921,395.099509 L200.5,459.342559 Z"></path>
            </g>
            <g id="intlet" transform="translate(64.000000, 70.000000)" fill-rule="nonzero" fill="#FFFFFF">
                <path d="M14.006337,190.4373 C29.5813837,190.4373 44.4841262,185.22053 56.5529199,175.797444 C68.6450574,185.22053 83.5431312,190.4373 99.1041716,190.4373 C114.665212,190.4373 129.572623,185.22053 141.660092,175.797444 C153.733554,185.22053 168.636297,190.4373 184.206675,190.4373 C199.772384,190.4373 214.675127,185.22053 226.757927,175.797444 C238.836058,185.22053 253.7388,190.4373 269.313847,190.4373 C277.050014,190.4373 283.320184,184.125478 283.320184,176.33792 C283.320184,168.550362 277.050014,162.238539 269.313847,162.238539 C257.020952,162.238539 245.419036,156.786779 237.486781,147.274397 C234.825577,144.087937 230.899134,142.245618 226.762595,142.245618 C226.762595,142.245618 226.762595,142.245618 226.757927,142.245618 C222.621388,142.245618 218.694945,144.087937 216.03841,147.269697 C208.096817,156.782079 196.490232,162.238539 184.206675,162.238539 C171.918449,162.238539 160.321202,156.786779 152.393615,147.279097 C149.732411,144.087937 145.810637,142.245618 141.674098,142.245618 L141.66943,142.245618 C137.53756,142.245618 133.611117,144.083237 130.949913,147.269697 C122.998982,156.782079 111.397067,162.238539 99.1088403,162.238539 C86.8299516,162.238539 75.2186983,156.782079 67.2630989,147.264997 C64.6018948,144.083237 60.6801205,142.245618 56.5482511,142.245618 C52.2529744,142.184521 48.4759322,144.092637 45.8147282,147.283797 C37.8918103,156.786779 26.299232,162.238539 14.006337,162.238539 C6.27017018,162.238539 0,168.550362 0,176.33792 C0,184.125478 6.27017018,190.4373 14.006337,190.4373 Z" id="Shape"></path>
                <path d="M269.313847,232.575649 C257.016283,232.575649 245.414367,227.123888 237.486781,217.611506 C234.825577,214.420347 230.899134,212.578028 226.762595,212.578028 C226.762595,212.578028 226.762595,212.578028 226.757927,212.578028 C222.621388,212.578028 218.694945,214.420347 216.033741,217.606807 C208.092148,227.119189 196.490232,232.575649 184.202006,232.575649 C171.909111,232.575649 160.316533,227.123888 152.388946,217.616206 C149.732411,214.425046 145.805968,212.582727 141.66943,212.582727 L141.664761,212.582727 C137.528223,212.582727 133.606448,214.420347 130.945244,217.606807 C122.998982,227.119189 111.392398,232.575649 99.1041716,232.575649 C86.820614,232.575649 75.2140295,227.119189 67.2584301,217.602107 C64.5972261,214.420347 60.6754517,212.582727 56.5435823,212.582727 L56.529576,212.582727 C52.3930378,212.587427 48.4665947,214.434446 45.8100594,217.625606 C37.8918103,227.128588 26.3039008,232.575649 14.006337,232.575649 C6.27017018,232.575649 0,238.887472 0,246.675029 C0,254.462587 6.27017018,260.77441 14.006337,260.77441 C29.5813837,260.77441 44.4841262,255.557639 56.5529199,246.134553 C68.6403887,255.557639 83.5431312,260.77441 99.1041716,260.77441 C114.669881,260.77441 129.572623,255.557639 141.660092,246.134553 C153.733554,255.557639 168.636297,260.77441 184.206675,260.77441 C199.772384,260.77441 214.675127,255.557639 226.757927,246.134553 C238.836058,255.557639 253.7388,260.77441 269.313847,260.77441 C277.050014,260.77441 283.320184,254.462587 283.320184,246.675029 C283.320184,238.892171 277.050014,232.575649 269.313847,232.575649 Z" id="Shape"></path>
                <g id="arrow-down-sign-to-navigate" transform="translate(41.000000, 0.000000)">
                    <path d="M97.466781,110.873512 C93.9731748,110.873512 90.48,109.543233 87.8164381,106.888267 L3.99922566,23.3001047 C-1.33264381,17.9828605 -1.33264381,9.36186047 3.99922566,4.04676744 C9.32893805,-1.26832558 17.9719248,-1.26832558 23.3042257,4.04676744 L97.466781,78.0101977 L171.629768,4.04934884 C176.961637,-1.26574419 185.603761,-1.26574419 190.933042,4.04934884 C196.2675,9.36444186 196.2675,17.9854419 190.933042,23.302686 L107.117124,106.890849 C104.452268,109.546244 100.959093,110.873512 97.466781,110.873512 Z" id="Shape"></path>
                </g>
            </g>
        </g>
    </g>
</svg>