<?xml version="1.0" encoding="UTF-8"?>
<svg width="403px" height="472px" viewBox="0 0 403 472" version="1.1" xmlns="http://www.w3.org/2000/svg" xmlns:xlink="http://www.w3.org/1999/xlink">
    <!-- Generator: Sketch 43.1 (39012) - http://www.bohemiancoding.com/sketch -->
    <title>Group</title>
    <desc>Created with Sketch.</desc>
    <defs>
        <path d="M289.422535,403 L353.002852,403 C380.614388,403 403,380.615515 403,353.002852 L403,49.9971476 C403,22.385612 380.615515,0 353.002852,0 L49.9971476,0 C22.385612,0 0,22.3844855 0,49.9971476 L0,353.002852 C0,380.614388 22.3844855,403 49.9971476,403 L111.577465,403 L200.5,472 L289.422535,403 Z" id="path-1"></path>
    </defs>
    <g id="Page-1" stroke="none" stroke-width="1" fill="none" fill-rule="evenodd">
        <g id="Group">
            <g id="Combined-Shape">
                <use fill="#D857A4" fill-rule="evenodd" xlink:href="#path-1"></use>
                <path stroke="#000000" stroke-width="20" d="M200.5,459.342559 L117.7079,395.099509 L115.002195,393 L111.577465,393 L49.9971476,393 C27.9077569,393 10,375.091964 10,353.002852 L10,49.9971476 C10,27.9077569 27.9080356,10 49.9971476,10 L353.002852,10 C375.092243,10 393,27.9080356 393,49.9971476 L393,353.002852 C393,375.092243 375.091964,393 353.002852,393 L289.422535,393 L285.997805,393 L283.2921,395.099509 L200.5,459.342559 Z"></path>
            </g>
            <g id="anchorage" transform="translate(66.000000, 47.000000)" fill-rule="nonzero" fill="#FFFFFF">
                <path d="M279.249682,244.220053 L268.885575,189.412053 C268.45291,187.140474 266.939951,185.222632 264.825917,184.279789 C262.716675,183.331474 260.275403,183.484053 258.293496,184.674579 L210.498386,213.470263 C207.698386,215.156158 206.422298,218.538895 207.408117,221.647947 C208.389829,224.762474 211.378093,226.789789 214.636773,226.563316 L233.305037,225.261947 C215.480196,249.204526 188.650856,259.031158 157.877555,261.549737 L157.877555,104.754684 L173.246064,104.754684 C175.724303,106.598632 178.770758,107.726211 182.097213,107.726211 C190.326748,107.726211 197.001565,101.060632 197.001565,92.8350526 C197.001565,84.6046842 190.326748,77.9391053 182.097213,77.9391053 C178.765281,77.9391053 175.718142,79.0721579 173.239902,80.9161053 L157.87687,80.9161053 L157.87687,59.3819474 C166.623276,53.5702632 172.41154,43.654 172.41154,32.3994211 C172.412225,14.5374211 157.867971,0 139.995208,0 C122.122445,0 107.576822,14.5374211 107.576822,32.3994211 C107.576822,43.654 113.36577,53.5702632 122.111491,59.3819474 L122.111491,80.9167895 L106.749144,80.9167895 C104.270905,79.0728421 101.22445,77.9397895 97.8925183,77.9397895 C89.6629829,77.9397895 82.9881663,84.6053684 82.9881663,92.8357368 C82.9881663,101.060632 89.6629829,107.726895 97.8925183,107.726895 C101.218973,107.726895 104.265428,106.599316 106.743667,104.755368 L122.111491,104.755368 L122.111491,261.550421 C91.3388753,259.031842 64.5095355,249.205211 46.685379,225.262632 L65.353643,226.564 C68.6116381,226.790474 71.6005868,224.763158 72.5816137,221.648632 C73.5674328,218.540263 72.2920293,215.156842 69.4920293,213.470947 L21.6962347,184.675263 C19.713643,183.484737 17.2730562,183.332158 15.1638142,184.280474 C13.04978,185.223316 11.5368215,187.141158 11.1041565,189.412737 L0.739364303,244.220737 C0.132811736,247.429 1.80391198,250.633158 4.78259169,251.970789 C7.76127139,253.315263 11.2670905,252.440158 13.2709046,249.857947 L24.4209291,235.484053 C46.2205379,270.765368 80.4989731,300.303421 120.034425,307.970684 L134.995599,322.923421 C137.758631,325.679421 142.228362,325.679421 144.986601,322.923421 L159.947775,307.970684 C199.483227,300.308895 233.766455,270.765368 255.566748,235.484053 L266.716773,249.857947 C268.720587,252.440158 272.226406,253.315263 275.204401,251.970789 C278.185134,250.632474 279.856235,247.428316 279.249682,244.220053 Z M139.995208,23.8372105 C144.718924,23.8372105 148.561565,27.6783684 148.561565,32.3994211 C148.561565,37.1204737 144.718924,40.9616316 139.995208,40.9616316 C135.271491,40.9616316 131.427482,37.1204737 131.427482,32.3994211 C131.428166,27.6783684 135.271491,23.8372105 139.995208,23.8372105 Z" id="XMLID_3_"></path>
            </g>
        </g>
    </g>
</svg>