<?xml version="1.0" encoding="UTF-8"?>
<svg width="403px" height="472px" viewBox="0 0 403 472" version="1.1" xmlns="http://www.w3.org/2000/svg" xmlns:xlink="http://www.w3.org/1999/xlink">
    <!-- Generator: Sketch 43.1 (39012) - http://www.bohemiancoding.com/sketch -->
    <title>Group</title>
    <desc>Created with Sketch.</desc>
    <defs>
        <path d="M289.422535,403 L353.002852,403 C380.614388,403 403,380.615515 403,353.002852 L403,49.9971476 C403,22.385612 380.615515,0 353.002852,0 L49.9971476,0 C22.385612,0 0,22.3844855 0,49.9971476 L0,353.002852 C0,380.614388 22.3844855,403 49.9971476,403 L111.577465,403 L200.5,472 L289.422535,403 Z" id="path-1"></path>
    </defs>
    <g id="Page-1" stroke="none" stroke-width="1" fill="none" fill-rule="evenodd">
        <g id="Group">
            <g id="Combined-Shape">
                <use fill="#43C962" fill-rule="evenodd" xlink:href="#path-1"></use>
                <path stroke="#000000" stroke-width="20" d="M200.5,459.342559 L117.7079,395.099509 L115.002195,393 L111.577465,393 L49.9971476,393 C27.9077569,393 10,375.091964 10,353.002852 L10,49.9971476 C10,27.9077569 27.9080356,10 49.9971476,10 L353.002852,10 C375.092243,10 393,27.9080356 393,49.9971476 L393,353.002852 C393,375.092243 375.091964,393 353.002852,393 L289.422535,393 L285.997805,393 L283.2921,395.099509 L200.5,459.342559 Z"></path>
            </g>
            <g id="lock" transform="translate(53.000000, 98.000000)" fill="#FFFFFF">
                <path d="M280.313847,177.575649 C268.016283,177.575649 256.414367,172.123888 248.486781,162.611506 C245.825577,159.420347 241.899134,157.578028 237.762595,157.578028 C237.762595,157.578028 237.762595,157.578028 237.757927,157.578028 C233.621388,157.578028 229.694945,159.420347 227.033741,162.606807 C219.092148,172.119189 207.490232,177.575649 195.202006,177.575649 C182.909111,177.575649 171.316533,172.123888 163.388946,162.616206 C160.732411,159.425046 156.805968,157.582727 152.66943,157.582727 L152.664761,157.582727 C148.528223,157.582727 144.606448,159.420347 141.945244,162.606807 C133.998982,172.119189 122.392398,177.575649 110.104172,177.575649 C97.820614,177.575649 86.2140295,172.119189 78.2584301,162.602107 C75.5972261,159.420347 71.6754517,157.582727 67.5435823,157.582727 L67.529576,157.582727 C63.3930378,157.587427 59.4665947,159.434446 56.8100594,162.625606 C48.8918103,172.128588 37.3039008,177.575649 25.006337,177.575649 C17.2701702,177.575649 11,183.887472 11,191.675029 C11,199.462587 17.2701702,205.77441 25.006337,205.77441 C40.5813837,205.77441 55.4841262,200.557639 67.5529199,191.134553 C79.6403887,200.557639 94.5431312,205.77441 110.104172,205.77441 C125.669881,205.77441 140.572623,200.557639 152.660092,191.134553 C164.733554,200.557639 179.636297,205.77441 195.206675,205.77441 C210.772384,205.77441 225.675127,200.557639 237.757927,191.134553 C249.836058,200.557639 264.7388,205.77441 280.313847,205.77441 C288.050014,205.77441 294.320184,199.462587 294.320184,191.675029 C294.320184,183.892171 288.050014,177.575649 280.313847,177.575649 Z" id="Shape" fill-rule="nonzero"></path>
                <polygon id="Path-2" points="7.49388701 50.2799893 123.843397 0.81135663 123.843397 146.539754 0.788174459 146.539754"></polygon>
                <polygon id="Path-2-Copy" transform="translate(233.527611, 73.864199) scale(-1, 1) translate(-233.527611, -73.864199) " points="178.705713 50.4686327 295.055222 1 295.055222 146.728397 172 146.728397"></polygon>
            </g>
        </g>
    </g>
</svg>