<?xml version="1.0" encoding="UTF-8"?>
<svg width="403px" height="472px" viewBox="0 0 403 472" version="1.1" xmlns="http://www.w3.org/2000/svg" xmlns:xlink="http://www.w3.org/1999/xlink">
    <!-- Generator: Sketch 43.1 (39012) - http://www.bohemiancoding.com/sketch -->
    <title>Group</title>
    <desc>Created with Sketch.</desc>
    <defs>
        <path d="M289.422535,403 L353.002852,403 C380.614388,403 403,380.615515 403,353.002852 L403,49.9971476 C403,22.385612 380.615515,0 353.002852,0 L49.9971476,0 C22.385612,0 0,22.3844855 0,49.9971476 L0,353.002852 C0,380.614388 22.3844855,403 49.9971476,403 L111.577465,403 L200.5,472 L289.422535,403 Z" id="path-1"></path>
    </defs>
    <g id="Page-1" stroke="none" stroke-width="1" fill="none" fill-rule="evenodd">
        <g id="Group">
            <g id="Combined-Shape">
                <use fill="#808E95" fill-rule="evenodd" xlink:href="#path-1"></use>
                <path stroke="#000000" stroke-width="20" d="M200.5,459.342559 L117.7079,395.099509 L115.002195,393 L111.577465,393 L49.9971476,393 C27.9077569,393 10,375.091964 10,353.002852 L10,49.9971476 C10,27.9077569 27.9080356,10 49.9971476,10 L353.002852,10 C375.092243,10 393,27.9080356 393,49.9971476 L393,353.002852 C393,375.092243 375.091964,393 353.002852,393 L289.422535,393 L285.997805,393 L283.2921,395.099509 L200.5,459.342559 Z"></path>
            </g>
            <g id="ramp" transform="translate(72.000000, 76.000000)" fill-rule="nonzero" fill="#FFFFFF">
                <path d="M269.45122,167.171219 L0,69.2653673 L0.548780488,199.806503 C6.40262195,199.806503 11.8904268,198.356046 17.0121951,195.455132 C22.5,192.07049 28.1705488,190.378532 34.0243902,190.378532 C39.8782317,190.378532 45.5487805,192.07049 51.0365854,195.455132 C56.5243902,198.356046 62.1038415,199.806503 67.7743902,199.806503 C73.444939,199.806503 79.0243902,198.356046 84.5121951,195.455132 C90,192.07049 95.6705488,190.378532 101.52439,190.378532 C107.378232,190.378532 113.04878,192.07049 118.536585,195.455132 C124.02439,198.356046 129.603841,199.806503 135.27439,199.806503 C140.944939,199.806503 146.52439,198.356046 152.012195,195.455132 C157.5,192.07049 163.170549,190.378532 169.02439,190.378532 C174.878232,190.378532 180.54878,192.07049 186.036585,195.455132 C191.158354,198.356046 196.646159,199.806503 202.5,199.806503 C208.353841,199.806503 213.841646,198.356046 218.963415,195.455132 C224.45122,192.07049 230.121768,190.378532 235.97561,190.378532 C241.828902,190.378532 247.682195,192.07049 253.536585,195.455132 C258.658354,198.356046 264.146159,199.806503 270,199.806503 L269.45122,167.171219 Z" id="Shape"></path>
            </g>
        </g>
    </g>
</svg>