<?xml version="1.0" encoding="UTF-8"?>
<svg width="403px" height="472px" viewBox="0 0 403 472" version="1.1" xmlns="http://www.w3.org/2000/svg" xmlns:xlink="http://www.w3.org/1999/xlink">
    <!-- Generator: Sketch 43.1 (39012) - http://www.bohemiancoding.com/sketch -->
    <title>Group</title>
    <desc>Created with Sketch.</desc>
    <defs>
        <path d="M289.422535,403 L353.002852,403 C380.614388,403 403,380.615515 403,353.002852 L403,49.9971476 C403,22.385612 380.615515,0 353.002852,0 L49.9971476,0 C22.385612,0 0,22.3844855 0,49.9971476 L0,353.002852 C0,380.614388 22.3844855,403 49.9971476,403 L111.577465,403 L200.5,472 L289.422535,403 Z" id="path-1"></path>
    </defs>
    <g id="Page-1" stroke="none" stroke-width="1" fill="none" fill-rule="evenodd">
        <g id="Group">
            <g id="Combined-Shape">
                <use fill="#C94343" fill-rule="evenodd" xlink:href="#path-1"></use>
                <path stroke="#000000" stroke-width="20" d="M200.5,459.342559 L117.7079,395.099509 L115.002195,393 L111.577465,393 L49.9971476,393 C27.9077569,393 10,375.091964 10,353.002852 L10,49.9971476 C10,27.9077569 27.9080356,10 49.9971476,10 L353.002852,10 C375.092243,10 393,27.9080356 393,49.9971476 L393,353.002852 C393,375.092243 375.091964,393 353.002852,393 L289.422535,393 L285.997805,393 L283.2921,395.099509 L200.5,459.342559 Z"></path>
            </g>
            <g id="marina" transform="translate(48.000000, 54.000000)" fill-rule="nonzero" fill="#FFFFFF">
                <path d="M291,141 L265.083,141 C263.422,115.263 253.287,91.797 237.438,73.376 L255.712,55.102 C258.836,51.977 258.836,46.913 255.712,43.788 C252.587,40.665 247.523,40.665 244.398,43.788 L226.023,61.996 C207.563,45.718 183.666,35.243 157.666,33.45 L157.666,8 C157.666,3.582 154.084,0 149.666,0 C145.248,0 141.666,3.582 141.666,8 L141.666,33.449 C115.666,35.242 92.102,45.717 73.642,61.995 L55.518,43.787 C52.393,40.664 47.37,40.664 44.245,43.787 C41.121,46.912 41.142,51.976 44.266,55.101 L62.551,73.375 C46.702,91.797 36.578,115.263 34.917,141 L8,141 C3.582,141 0,144.582 0,149 C0,153.418 3.582,157 8,157 L34.981,157 C36.873,182.845 47.321,206.348 63.495,224.69 L44.287,243.898 C41.163,247.023 41.163,252.087 44.287,255.212 C45.85,256.774 47.896,257.555 49.944,257.555 C51.992,257.555 54.039,256.774 55.601,255.212 L74.709,235.938 C93.011,251.684 116.666,261.791 141.667,263.55 L141.667,291 C141.667,295.418 145.249,299 149.667,299 C154.085,299 157.667,295.418 157.667,291 L157.667,263.551 C183.667,261.792 206.656,251.685 224.957,235.939 L244.315,255.213 C245.878,256.775 247.966,257.556 250.014,257.556 C252.062,257.556 254.13,256.775 255.692,255.213 C258.816,252.088 258.826,247.024 255.702,243.899 L236.5,224.69 C252.674,206.347 263.127,182.844 265.019,157 L291,157 C295.418,157 299,153.418 299,149 C299,144.582 295.418,141 291,141 Z M232.979,141 L169.815,141 L214.726,96.089 C224.868,108.591 231.461,124.072 232.979,141 Z M203.174,84.679 L157.667,130.186 L157.667,65.56 C175.667,67.209 190.607,74.126 203.174,84.679 Z M141.667,65.56 L141.667,130.186 L96.16,84.679 C108.727,74.126 124.667,67.209 141.667,65.56 Z M85.274,96.089 L130.186,141 L67.021,141 C68.539,124.072 75.132,108.591 85.274,96.089 Z M67.098,157 L131.186,157 L86.179,202.007 C75.728,189.561 68.831,174.035 67.098,157 Z M97.256,213.226 L141.667,168.815 L141.667,231.441 C125.667,229.839 109.635,223.269 97.256,213.226 Z M157.667,231.44 L157.667,168.814 L202.078,213.225 C189.699,223.269 174.667,229.839 157.667,231.44 Z M213.821,202.007 L168.814,157 L232.902,157 C231.169,174.035 224.273,189.561 213.821,202.007 Z" id="Shape"></path>
            </g>
        </g>
    </g>
</svg>